<svg width="96.000000pt" height="96.000000pt" viewBox="0 0 96.000000 96.000000" xmlns="http://www.w3.org/2000/svg">
  <g transform="translate(0.000000,96.000000) scale(0.100000,-0.100000)" fill="transparent" stroke="none">
    <path d="M0 480 c0 -480 0 -480 480 -480 480 0 480 0 480 480 0 480 0 480
-480 480 -480 0 -480 0 -480 -480z m514 419 c30 -14 56 -65 56 -108 0 -52 41
-63 83 -23 98 95 212 -15 117 -113 -42 -44 -33 -85 21 -85 78 0 134 -60 109
-119 -14 -34 -63 -61 -109 -61 -54 0 -63 -41 -21 -85 92 -95 -20 -207 -115
-115 -44 42 -85 33 -85 -21 0 -46 -27 -95 -61 -109 -59 -25 -119 31 -119 109
0 54 -41 63 -85 21 -98 -95 -208 19 -113 117 40 42 29 83 -23 83 -46 0 -95 27
-109 61 -25 59 31 119 109 119 52 0 63 41 23 83 -48 49 -52 89 -13 128 39 39
79 35 128 -13 42 -40 83 -29 83 23 0 83 61 136 124 108z" />
    <path d="M426 868 c-9 -13 -16 -43 -16 -69 0 -45 -2 -48 -35 -59 -33 -11 -38
-10 -71 19 -92 81 -184 -11 -103 -103 29 -33 30 -38 19 -71 -11 -33 -14 -35
-59 -35 -64 0 -91 -21 -91 -70 0 -49 27 -70 91 -70 45 0 48 -2 59 -35 11 -33
10 -38 -19 -71 -81 -92 11 -184 103 -103 33 29 38 30 71 19 33 -11 35 -14 35
-59 0 -64 21 -91 70 -91 49 0 70 27 70 91 0 45 2 48 35 59 33 11 38 10 71 -19
92 -81 184 11 103 103 -29 33 -30 38 -19 71 11 33 14 35 59 35 64 0 91 21 91
70 0 49 -27 70 -91 70 -45 0 -48 2 -59 35 -11 33 -10 38 19 71 81 92 -11 184
-103 103 -33 -29 -38 -30 -71 -19 -33 11 -35 14 -35 59 0 64 -21 91 -70 91
-29 0 -43 -6 -54 -22z m153 -241 c114 -76 101 -246 -24 -307 -88 -43 -191 -6
-235 85 -78 160 109 321 259 222z" />
    <path d="M392 620 c-37 -23 -72 -75 -72 -107 0 -38 69 -33 92 7 30 53 106 53
136 0 23 -40 92 -45 92 -7 0 97 -154 164 -248 107z" />
    <path d="M430 530 c-43 -43 -11 -120 50 -120 17 0 39 9 50 20 11 11 20 33 20
50 0 17 -9 39 -20 50 -11 11 -33 20 -50 20 -17 0 -39 -9 -50 -20z" />
    <path d="M320 448 c0 -33 35 -85 72 -108 94 -57 248 10 248 108 0 37 -69 32
-92 -8 -30 -53 -106 -53 -136 0 -23 40 -92 45 -92 8z" />
  </g>
  <g transform="translate(0.000000,96.000000) scale(0.100000,-0.100000)" fill="#fff" stroke="none">
    <path d="M433 908 c-27 -13 -53 -65 -53 -107 0 -48 -28 -56 -66 -20 -106 103
-238 -29 -135 -135 36 -38 28 -66 -20 -66 -65 0 -119 -45 -119 -100 0 -55 54
-100 119 -100 48 0 56 -28 20 -66 -101 -104 29 -237 133 -137 40 38 68 31 68
-18 0 -65 45 -119 100 -119 55 0 100 54 100 119 0 49 28 56 68 18 102 -98 233
33 135 135 -38 40 -31 68 18 68 65 0 119 45 119 100 0 55 -54 100 -119 100
-49 0 -56 28 -18 68 100 104 -33 234 -137 133 -38 -36 -66 -28 -66 20 0 88
-74 142 -147 107z m91 -50 c9 -13 16 -43 16 -69 0 -45 1 -46 42 -62 41 -17 41
-17 80 18 86 79 162 3 83 -83 -35 -39 -35 -39 -18 -80 16 -41 17 -42 62 -42
59 0 91 -21 91 -60 0 -39 -32 -60 -91 -60 -45 0 -46 -1 -62 -42 -17 -41 -17
-41 18 -80 79 -86 3 -162 -83 -83 -39 35 -39 35 -80 18 -41 -16 -42 -17 -42
-62 0 -59 -21 -91 -60 -91 -39 0 -60 32 -60 91 0 45 -1 46 -42 62 -41 17 -41
17 -80 -18 -86 -79 -162 -3 -83 83 35 39 35 39 18 80 -16 41 -17 42 -62 42
-59 0 -91 21 -91 60 0 39 32 60 91 60 45 0 46 1 62 42 17 41 17 41 -18 80 -79
86 -3 162 83 83 39 -35 39 -35 80 -18 41 16 42 17 42 62 0 59 21 91 60 91 18
0 34 -8 44 -22z" />
    <path d="M392 649 c-125 -63 -136 -250 -20 -326 123 -82 284 -5 296 142 12
149 -142 252 -276 184z m166 -39 c32 -20 72 -74 72 -97 0 -25 -56 -15 -68 13
-28 61 -136 61 -164 0 -12 -28 -68 -38 -68 -13 0 85 146 147 228 97z m-38 -90
c36 -36 10 -100 -40 -100 -11 0 -29 9 -40 20 -11 11 -20 29 -20 40 0 11 9 29
20 40 11 11 29 20 40 20 11 0 29 -9 40 -20z m-122 -86 c28 -61 136 -61 164 0
12 28 68 38 68 14 0 -54 -82 -118 -150 -118 -68 0 -150 64 -150 118 0 24 56
14 68 -14z" />
  </g>
</svg>